<svg width="106" height="106" viewBox="0 0 106 106" fill="none" xmlns="http://www.w3.org/2000/svg">
<path d="M44.5328 57.1197C46.4116 59.6315 48.8087 61.7099 51.5614 63.2138C54.3141 64.7178 57.3581 65.6121 60.4869 65.8362C63.6156 66.0603 66.756 65.6088 69.6949 64.5125C72.6338 63.4162 75.3026 61.7007 77.5203 59.4822L90.6453 46.3572C94.63 42.2316 96.8348 36.7059 96.785 30.9703C96.7352 25.2348 94.4346 19.7482 90.3788 15.6924C86.323 11.6366 80.8365 9.33607 75.1009 9.28623C69.3654 9.23639 63.8397 11.4413 59.714 15.426L52.189 22.9072" stroke="#132742" stroke-width="5" stroke-linecap="round" stroke-linejoin="round"/>
<path d="M62.0328 48.3698C60.1539 45.8579 57.7568 43.7796 55.0041 42.2756C52.2514 40.7717 49.2074 39.8774 46.0787 39.6533C42.9499 39.4292 39.8096 39.8807 36.8706 40.977C33.9317 42.0733 31.2629 43.7888 29.0453 46.0073L15.9203 59.1323C11.9356 63.2579 9.73068 68.7836 9.78052 74.5192C9.83036 80.2547 12.1309 85.7412 16.1867 89.797C20.2425 93.8528 25.7291 96.1534 31.4646 96.2033C37.2002 96.2531 42.7258 94.0482 46.8515 90.0635L54.3328 82.5823" stroke="#132742" stroke-width="5" stroke-linecap="round" stroke-linejoin="round"/>
</svg>
